PathFileType	4	(X/Y/Z)	16_2_25_p1_0-252.trc
DataRate	CameraRate	NumFrames	NumMarkers	Units	OrigDataRate	OrigDataStartFrame	OrigNumFrames
59.0	59.0	6	27	m	59.0	31	253
Frame#	Time	RHip			RKnee			RAnkle			RBigToe			RSmallToe			RHeel			LHip			LKnee			LAnkle			LBigToe			LSmallToe			LHeel			Neck			Head			Nose			RShoulder			RElbow			RWrist			RThumb			RIndex			RPinky			LShoulder			LElbow			LWrist			LThumb			LIndex			LPinky			
		X1	Y1	Z1	X2	Y2	Z2	X3	Y3	Z3	X4	Y4	Z4	X5	Y5	Z5	X6	Y6	Z6	X7	Y7	Z7	X8	Y8	Z8	X9	Y9	Z9	X10	Y10	Z10	X11	Y11	Z11	X12	Y12	Z12	X13	Y13	Z13	X14	Y14	Z14	X15	Y15	Z15	X16	Y16	Z16	X17	Y17	Z17	X18	Y18	Z18	X19	Y19	Z19	X20	Y20	Z20	X21	Y21	Z21	X22	Y22	Z22	X23	Y23	Z23	X24	Y24	Z24	X25	Y25	Z25	X26	Y26	Z26	X27	Y27	Z27	
31	0.5254237288135594	0.29572095870336196	0.4793487238759482	0.512949335165928	0.28295727648370256	0.6289065526387458	0.957919471604431	0.24245869495946637	0.71949450546446	1.3812735616643224	0.24361876633769258	0.4049776001551861	1.3528718122963608	0.3097467196848463	0.4815946300725771	1.3809442390825009	0.21903574911629084	0.7651260649250539	1.4338799874321175	0.0625196427735596	0.4992966736244753	0.504938978913321	0.0574277504557177	0.6164990351099214	0.9436458032367202	0.07667871063651918	0.6811504355606802	1.3655885693846899	0.05566055688191323	0.43471034283920496	1.357143725689421	-0.004363804543473975	0.5335275232623896	1.3842480730440692	0.10186781746579418	0.7687194042601283	1.4356522069703241	0.17722061957481164	0.3954933397165226	-0.13432898090645587	0.20392418432903073	0.28956717114645053	-0.37972359273405865	0.18750504829562	0.2547749506258341	-0.2360553812706567	0.35970729297391046	0.42515824442914574	-0.04243134238639636	0.45473220740323145	0.5340255079858028	0.2230531463797739	0.5153403698704845	0.37475660386589316	0.42585005499956824	0.4731953453715264	0.20391882016303836	0.5065645647332974	0.5041298710435604	0.21610767076347898	0.517903697461375	0.5234356499946362	0.26180986089373964	0.5357737194541019	-0.00563161145567013	0.4057626604045578	-0.04993565122527791	-0.09841284553507076	0.47688738128140795	0.20354585612457934	-0.09876508563389828	0.33829335822799117	0.4678801221527037	-0.051752224293446995	0.2918404787709051	0.5684213082122601	-0.09281533249179273	0.23767156376664858	0.5747968578371737	-0.11556882879072926	0.27129894035365343	0.5751388726404156
32	0.5423728813559322	0.2957316759057899	0.4793179606028315	0.5131709319847607	0.28300274273018344	0.6288682647178462	0.9578021783370151	0.23461265186114794	0.7220389344422369	1.3828431319062198	0.2439670060825744	0.4059855461518298	1.352730745108951	0.31024815146786144	0.4830200106886866	1.3811220077005983	0.21898300566290954	0.765162512573482	1.4337213283573207	0.06307522336459313	0.5006402933453978	0.5134949013435214	0.05745531275576953	0.6163894378707045	0.9437390629499026	0.07318771192504751	0.6668435297440699	1.3592962191063418	0.05564521102994577	0.4346145040178214	1.3570849918966077	-0.004414702741299337	0.5334754882663517	1.3841503818961602	0.10185433842367074	0.7685879110930933	1.4355345077734005	0.17720143328028515	0.39546150202737845	-0.1343795631957502	0.20385283333399443	0.28966886519333224	-0.37977843504211095	0.1874294290570275	0.25482552329956093	-0.23611380911692895	0.35969655297971226	0.42508981625924075	-0.04240751672079752	0.45477236417825706	0.534156795806696	0.2230636814764411	0.5257232973479455	0.3978946936488514	0.4333692225513414	0.4819651442881023	0.22369472167101723	0.5112624116281522	0.5122421807072701	0.22701839315069958	0.5244175775494064	0.5266289405753285	0.2864580320567576	0.5374139167497718	-0.0056651592450582084	0.40579389972848473	-0.049932861054798404	-0.09839105833494398	0.47701502677348456	0.20729107207907896	-0.10842689937098907	0.3497023010309787	0.4774955783965892	-0.057032785617436084	0.30435585619459293	0.5742150813164223	-0.09754052287654523	0.24930962637358445	0.5782087146184068	-0.12547276627639142	0.2951943561160161	0.584253521904803
33	0.559322033898305	0.29579290799182184	0.4797805470489453	0.5134812636520425	0.2829504573857793	0.6290856347717902	0.9578915495552774	0.2386772390255388	0.7372861311910496	1.3895211847223274	0.23933669511320513	0.4192485470644086	1.3605444360406247	0.3012487332432813	0.4942434766299183	1.3880871301808688	0.2219951746353198	0.7784856969858807	1.4361140989643417	0.058405729854480656	0.5153054984209465	0.5125188612218099	0.05749599615331676	0.6164639510929617	0.943675120861171	0.08127567294719881	0.683372639462624	1.3664415546217303	0.05577082419076669	0.43458975174078196	1.3571773273120191	-0.004256364675192172	0.5333706612926988	1.3842345628921888	0.10183797179535388	0.768450570713967	1.4356813074219468	0.17716564994084918	0.3954948490188266	-0.13440688325196104	0.20033357967278426	0.28940494493249513	-0.3796722161664679	0.1872233166781362	0.2546247639712149	-0.23939888692868044	0.35558637124529047	0.4244106958512916	-0.042324868149487126	0.4501392886840776	0.5226108776085884	0.22213578583450988	0.5300443325736611	0.3989235502760752	0.43752400229389904	0.4833731150169838	0.25333156000460005	0.5193650476071202	0.5140170136816565	0.2392531045122919	0.5305300660697604	0.5260316757994291	0.28680261775136945	0.5445339958474695	-0.005732698214429959	0.4057068988519794	-0.04990507974286309	-0.09845498866895602	0.47702560084481666	0.20737621034990325	-0.11369481732179032	0.36252879106644775	0.476172459188682	-0.06656162143456691	0.3158282322615438	0.5803169198299895	-0.10175621740359111	0.24788705707447892	0.5781571136486663	-0.13161260234627872	0.32176669853000156	0.5909426345750236
34	0.576271186440678	0.29574028643986244	0.4801029330335299	0.513661808461515	0.282945388402202	0.6289557419554302	0.9578378860832711	0.23837398215994318	0.7044243982307805	1.374659429291398	0.2434599843476911	0.4049681246042527	1.3528248862348802	0.30474965751951455	0.4793131100003314	1.3801823426028372	0.21905954961135465	0.7648751896815567	1.4341703688915446	0.05845771742097616	0.5152599551737579	0.5165827852517382	0.057486057711709934	0.6164403514335008	0.9436432502063161	0.07775849133947452	0.6691517855475866	1.360218945338949	0.055724658231125795	0.4346083067100507	1.3570999335583211	-0.004315377819290435	0.5333853343522864	1.3841978180325818	0.10173466700201944	0.7682730483554745	1.4357709891968107	0.177138558378545	0.39548170269628374	-0.13444310768619283	0.20032527264521724	0.28941047624137195	-0.3797011682824449	0.18715602351925445	0.2547312846850116	-0.23950048807452368	0.35555616670038254	0.4244816061969162	-0.042279643966814495	0.4501712775923399	0.5224947641164386	0.22210772629678568	0.5299763500870839	0.3981811947549583	0.4453753549135287	0.4895059732137345	0.24150964563696814	0.52050148194109	0.5175245607571181	0.23883446374406778	0.5281560829012819	0.5286507677562232	0.27531846606917837	0.5564081909252235	-0.005805686706261541	0.4056071900773985	-0.049873641290166	-0.09846886917720335	0.47694168649378454	0.20724474008574664	-0.11853551262736021	0.37485085589194717	0.4785898148817243	-0.06743598757633382	0.3162171275001834	0.5839401623620035	-0.1019356619641598	0.2479875530723403	0.5785618197666591	-0.14051423932400348	0.33302641951456363	0.5980199407691225
35	0.5932203389830508	0.29228456668887515	0.4941102987862779	0.5164571420477507	0.28293277614938855	0.6288208753110676	0.957838810629908	0.2386742292975109	0.7370591912456571	1.3893517712344978	0.24336040195301745	0.4040193599151153	1.352841469205399	0.31036485644943995	0.47888538341999387	1.376173470808568	0.2190418957378354	0.7658109342998279	1.4339667717889941	0.05404842320654673	0.5143461512650686	0.516615700532149	0.057447021000632065	0.6163640403737887	0.9436405952577891	0.07641919418863516	0.6815331003932226	1.3609941249709907	0.06093116190665618	0.42001174779704176	1.3458791979416598	0.005355467671788216	0.5052650871803029	1.3697321007258176	0.10088547134492219	0.7653749433209728	1.4305277642827923	0.17711608998677641	0.39562704474103183	-0.13442551218511894	0.2002450312527364	0.28955431539589527	-0.37971553163059063	0.183220768103087	0.25278244515192405	-0.23930667141322265	0.35552325118599704	0.4246079543761773	-0.04225594080606963	0.4549351620779947	0.5341775915909309	0.22304768639150865	0.5356110876722759	0.4104937628313781	0.4513356884380536	0.4903286097316341	0.27849758754086124	0.5371065812186999	0.5178792059841487	0.23807808265133207	0.5320886957576916	0.5420219840616752	0.33523691870294225	0.5648873487180938	-0.005695578987238101	0.40590226667268264	-0.04998554924714494	-0.09869971502188639	0.4757988386330115	0.20376916805342352	-0.1231950618265955	0.3868161045951229	0.4847602885055078	-0.07159021937863878	0.3151100756863296	0.5841334749220627	-0.10640487968253029	0.25869071789646925	0.5812538403040923	-0.14550708781517224	0.3452729865704306	0.6012837677814077
36	0.6101694915254238	0.29564676689399677	0.47967661591195393	0.5133731772233481	0.2819177283791008	0.6111238656484927	0.9522060125384775	0.2475858424935771	0.7214197054090764	1.3822188850745687	0.25205264795159127	0.41810260457582893	1.359240434503033	0.3104944124471655	0.47973810260690114	1.3765154077707904	0.22213571629842918	0.7787952228289875	1.436575389877191	0.054026381917715534	0.5140387375256553	0.5164553582569826	0.05742484107079883	0.616281374271696	0.9434359300695997	0.07629172754679062	0.681752778729441	1.3610211678474151	0.05522463366605445	0.4198304368992822	1.349835520125089	0.0004193635184951831	0.5199923164879325	1.3771382468347315	0.10185483347647516	0.7676544307859728	1.4346225215826014	0.1770915772074391	0.3955681746740762	-0.13443613536152085	0.2002841752203956	0.28943648857374477	-0.379729406245302	0.18318858944113114	0.2527747007284554	-0.23948413669636284	0.35955797088021185	0.43602468405907036	-0.04238148108229871	0.454978577683689	0.5345198804599331	0.22295302479701204	0.5318404670346233	0.4094626081500585	0.45535049677630296	0.49006103490461683	0.27926801660320316	0.5422612091127582	0.5180051419921724	0.250868701573568	0.5521953578471667	0.5377836569979372	0.3359686034393239	0.5738636633206762	-0.0057912058767955864	0.4059360461361338	-0.049942607524882686	-0.09809158291585295	0.4767455031092315	0.21101426738866494	-0.12324452259896199	0.3869618541247446	0.48499079555248176	-0.0755103270611182	0.3137051454594497	0.5846401476879607	-0.1060783639780769	0.2603738812862961	0.5852574795497781	-0.1432902826629874	0.3580023179831911	0.6044912459551877
